<?xml version="1.0" encoding="UTF-8"?>
<svg width="40px" height="40px" viewBox="0 0 40 40" version="1.1" xmlns="http://www.w3.org/2000/svg" xmlns:xlink="http://www.w3.org/1999/xlink">
    <title>logo</title>
    <g id="Home" stroke="none" stroke-width="1" fill="none" fill-rule="evenodd">
        <g id="home-/-V2" transform="translate(-281.000000, -703.000000)">
            <g id="wo-push-+-companies-+-jobs" transform="translate(0.000000, 593.000000)">
                <g id="wo-push" transform="translate(100.000000, 70.000000)">
                    <g id="infos" transform="translate(50.000000, 40.000000)">
                        <g id="logo" transform="translate(131.000000, 0.000000)">
                            <path d="M15.3833112,-6.21504185e-16 L24.6166888,6.21504185e-16 C29.9658012,-3.61111829e-16 31.9055187,0.556953667 33.8610742,1.60279622 C35.8166298,2.64863878 37.3513612,4.18337022 38.3972038,6.13892578 C39.4430463,8.09448133 40,10.0341988 40,15.3833112 L40,24.6166888 C40,29.9658012 39.4430463,31.9055187 38.3972038,33.8610742 C37.3513612,35.8166298 35.8166298,37.3513612 33.8610742,38.3972038 C31.9055187,39.4430463 29.9658012,40 24.6166888,40 L15.3833112,40 C10.0341988,40 8.09448133,39.4430463 6.13892578,38.3972038 C4.18337022,37.3513612 2.64863878,35.8166298 1.60279622,33.8610742 C0.556953667,31.9055187 2.4074122e-16,29.9658012 -4.14336123e-16,24.6166888 L4.14336123e-16,15.3833112 C-2.4074122e-16,10.0341988 0.556953667,8.09448133 1.60279622,6.13892578 C2.64863878,4.18337022 4.18337022,2.64863878 6.13892578,1.60279622 C8.09448133,0.556953667 10.0341988,3.61111829e-16 15.3833112,-6.21504185e-16 Z" id="Rectangle" fill="#FFCD00"></path>
                            <path d="M31.347322,11.295661 C30.1466441,9.31125424 26.6585085,8.44345763 24.1202034,11.0048136 C23.9785085,11.1532881 23.7913898,11.6054915 24.3554576,12.2149831 C25.5364746,13.4732881 31.6957966,19.9329492 29.4171525,25.5749831 C28.3100339,28.3180339 25.1615593,27.8454915 23.9785085,23.3010847 C23.4991864,21.4590508 22.7595254,17.6326102 23.468678,13.0393898 C23.468678,13.0393898 23.5818983,12.6082034 23.3995254,12.4705763 C23.2734237,12.3743051 23.0707119,12.4143051 22.8103729,12.8312542 C22.7452881,12.936339 22.7588475,12.9146441 22.6964746,13.0265085 L22.6924068,13.0285424 C20.9466441,15.9729492 19.1703729,19.4637966 18.3344407,20.7729492 C18.7425763,18.7980339 18.2252881,16.0814237 17.4185085,13.8075254 L17.2666441,13.396678 C16.5215593,11.4515932 15.6259661,10.1390508 15.3541017,9.84142373 C15.3215593,9.80549153 15.2408814,9.73837288 14.9744407,9.73837288 L7.42461017,9.73837288 C6.89647458,9.73837288 6.94257627,10.1905763 7.10935593,10.3539661 C9.11410169,12.7397288 14.9554576,21.6834576 12.2469831,30.4604068 C12.0381695,31.1390508 12.3663051,31.4949831 12.9066441,30.7946441 C15.2808814,27.7173559 18.2266441,22.4719322 20.3608814,18.5404068 C19.8903729,19.9037966 19.4761356,21.4217627 19.2544407,23.0122712 C18.7866441,26.3695593 19.7791864,28.8949831 20.5052881,30.2204068 C20.8768136,30.8990508 21.3696949,31.3139661 22.6456271,31.1241356 C29.1527458,30.1546441 31.3229153,24.4224407 32.1242712,21.515322 C33.5852881,16.215661 32.5154576,13.2258305 31.347322,11.295661" id="monogram" fill="#000000"></path>
                        </g>
                    </g>
                </g>
            </g>
        </g>
    </g>
</svg>