<?xml version="1.0" encoding="UTF-8"?>
<svg width="1000px" height="120px" viewBox="0 0 1000 120" version="1.1"
    xmlns="http://www.w3.org/2000/svg"
    xmlns:xlink="http://www.w3.org/1999/xlink">
    <g id="Products" stroke="none" stroke-width="1" fill="none" fill-rule="evenodd">
        <g id="welcome-originals-/-1-line" fill="#fff">
            <path d="M743.447161,18.5235487 C745.808047,18.5235487 751.829979,24.5470062 751.829979,29.1534827 C751.829979,29.5903851 751.63095,29.8237934 751.234875,29.8596607 L751.121971,29.8645495 L735.419635,29.8645495 C744.626317,33.8810466 749.229658,41.5610837 749.229658,50.1814809 C749.229658,64.8330646 737.193518,75.7025972 720.546313,75.7025972 C715.35082,75.7025972 710.98434,75.1100415 707.323293,73.9275064 C706.61786,74.9915303 706.141563,76.405935 706.141563,77.8254923 C706.141563,80.8336581 708.970277,82.4820305 713.959106,82.5508123 L714.28752,82.5530563 L736.011787,82.5530563 C746.63706,82.5530563 752.537987,86.566977 752.537987,93.7729696 C752.537987,107.950509 723.496776,120 707.444298,120 C698.116611,120 691.386671,115.983503 691.386671,109.841534 C691.386671,106.177994 693.865987,101.924475 698.822045,98.2609349 C693.750132,96.1354634 691.03138,92.3559886 691.03138,87.2780439 C691.03138,81.1334989 696.463734,75.3444874 704.843977,73.1030811 C694.573996,68.8469854 690.797094,60.342523 690.797094,52.0725065 C690.797094,37.6605214 703.193674,27.0280111 720.072591,27.0280111 C724.557501,27.0280111 728.455409,27.6205668 731.998024,28.568656 C735.656496,23.7225809 739.317542,20.5330854 742.265431,18.8790821 C742.623297,18.6420599 743.094445,18.5235487 743.447161,18.5235487 Z M700.003775,98.7349795 C704.722972,109.370066 715.46925,111.729984 723.849493,111.729984 C731.408447,111.729984 736.601365,109.011956 736.601365,105.116547 C736.601365,101.871003 733.994921,100.220058 728.450474,100.154024 L728.100117,100.15196 L710.03947,100.15196 C706.141563,100.15196 702.719952,99.6779159 700.003775,98.7349795 Z M978.329798,26.8018094 C983.667561,26.8018094 989.855237,27.9389849 994.262798,29.012453 L994.763314,29.1359636 L997.080431,46.2170257 C997.162818,46.7786654 996.475406,46.9641611 996.143286,46.5055745 C987.860877,35.017723 980.881203,29.0200288 974.882442,29.0200288 C970.572603,29.0200288 966.509923,31.4829994 966.509923,36.2904296 C966.509923,42.981387 973.927226,46.1151422 981.902111,49.5590925 L982.639638,49.8779893 L983.521267,50.2822113 C991.845114,54.1133147 1000,58.4163832 1000,70.9111403 C1000,85.8177805 987.68838,91.1172895 973.281056,91.1172895 C965.610176,91.1172895 957.23633,89.2854018 951.686425,86.9130107 L951.24269,86.7194957 L950.45487,67.6829999 C950.39308,67.183192 951.005829,67.0131543 951.301905,67.425367 C959.566293,78.8204707 966.55369,88.8990702 976.975572,88.8990702 C982.392479,88.8990702 984.364603,85.8177805 984.364603,82.244412 C984.364603,75.347579 976.975572,72.7583682 969.094796,69.1875761 C960.354113,65.2432162 951.121685,59.8226197 951.121685,46.7632074 C951.121685,32.4697335 963.062566,26.8018094 978.329798,26.8018094 Z M95.8441181,13.4471498 C100.388244,20.9623019 104.548758,32.5995805 98.8640951,53.2282477 C95.7488588,64.5434852 88.2594188,86.8544954 62.9487676,90.6288175 C57.9849862,91.368224 56.3836002,89.5544883 54.6200161,87.1121283 C51.1726595,82.3356141 46.9812507,72.1230455 48.8040501,59.0533279 C49.6665329,52.8649853 50.9357986,48.9412361 52.7663217,43.6365744 C44.4633159,58.9399694 35.3827883,77.121124 26.7682589,89.6549651 C25.7950694,91.0745225 24.8373273,91.2471365 24.2889427,90.9405534 C23.7791768,90.6545808 23.8718615,89.6961864 24.2065563,88.3513426 C33.6758448,50.1315001 8.24161399,19.0712763 0.440650396,9.78360982 C-0.187867835,9.16464675 -0.376641539,7.49393003 1.48003105,7.39011469 L1.66614831,7.38504742 L32.1542707,7.38504742 C33.1918246,7.38504742 33.2767856,7.69420691 33.7942753,7.98017944 C35.6042018,8.97721881 46.2835408,31.860174 41.7574371,53.5142203 C51.854922,35.0290588 60.5518379,22.6420684 60.8067208,22.2350084 C61.4220444,21.2379691 62.073412,21.1941715 62.6707135,21.4183121 C63.6155827,21.7738455 63.4482353,22.6317631 63.3658488,23.0465521 C59.8772991,40.1379195 62.3772119,58.2314789 67.9151236,67.5629429 C73.0951694,76.2941223 83.6586525,78.733906 87.4921953,69.9125551 C96.9357381,48.1915243 73.2419202,21.9232726 68.6488777,17.0282473 C66.4527648,14.6528719 67.1787951,12.8932391 67.7297542,12.3187177 C77.6058256,2.34574766 91.1738382,5.72589146 95.8441181,13.4471498 Z M888.551006,27.028784 C910.830326,27.028784 909.907522,45.0223628 909.886838,45.3822344 L909.886512,75.3452603 C909.886512,80.4257813 911.65782,85.7407483 913.779271,89.9942677 C914.000341,90.4367093 913.808747,90.7736702 913.401251,90.8166319 L913.310698,90.8212693 L888.908872,90.8212693 C888.504861,90.8212693 888.168857,90.5183296 888.121579,90.1252172 L888.115903,90.0251836 L888.139074,82.8140384 C874.468078,96.8550321 861.203865,90.0895918 857.210699,83.4014415 C851.723069,74.2092022 854.562465,53.5961158 887.16765,48.3601409 L888.164819,48.2062094 L888.164819,46.2095543 C888.164819,34.6624472 873.875926,32.2046292 863.170841,37.8029924 C862.599285,38.1018466 862.066348,37.3418295 862.552943,36.9141589 C866.950318,33.0239019 876.015398,27.028784 888.551006,27.028784 Z M599.716595,43.9161061 C600.92922,70.0091674 584.663053,89.841749 561.067069,90.9418415 C529.40494,92.4155018 517.868267,71.71985 516.910525,51.1504383 C515.726221,25.6731197 532.445514,6.12651064 556.337574,5.01353646 C583.893255,3.73310089 598.68934,21.8112023 599.716595,43.9161061 Z M942.5898,4.93882292 C943.063521,4.93882292 943.297808,5.1758452 943.297808,5.6447371 C943.297808,6.35838026 942.826661,9.3082771 942.826661,14.035841 L942.826661,75.344745 C942.826661,80.4278424 944.597968,85.740233 946.724568,89.9937524 C946.95628,90.467797 946.724568,90.8233304 946.250846,90.8233304 L917.680782,90.8233304 C917.209635,90.8233304 916.972774,90.467797 917.209635,89.9937524 C919.688951,85.1502537 921.104968,80.659712 921.104968,75.344745 L921.104968,30.4573628 C921.104968,24.431329 918.978368,19.585254 915.556757,15.5713332 L914.375027,14.035841 C914.02231,13.6777313 914.138166,13.0903282 914.611888,12.9718171 L940.584205,5.41029115 C941.763361,5.05991039 942.237083,4.93882292 942.5898,4.93882292 Z M833.682684,27.0272382 C844.192101,27.0272382 850.095602,34.9442976 850.095602,49.0033256 L850.095602,75.3437145 C850.095602,80.4268119 851.864336,85.7392025 853.990935,89.9952982 C854.227796,90.4667664 853.990935,90.8222998 853.517213,90.8222998 L824.949724,90.8222998 C824.476002,90.8222998 824.241716,90.4667664 824.476002,89.9952982 C826.955318,85.1492231 828.371335,80.6612578 828.371335,75.3437145 L828.371335,49.7118161 C828.371335,43.44876 826.131454,40.1407534 822.112542,40.1407534 C817.159059,40.1407534 814.440307,44.7472299 814.440307,53.7283132 L814.440307,75.3437145 C814.440307,80.4268119 815.977328,85.8577136 818.338214,89.9952982 C818.5725,90.4667664 818.338214,90.8222998 817.867067,90.8222998 L789.297003,90.8222998 C788.825856,90.8222998 788.588995,90.4667664 788.825856,89.9952982 C791.536884,85.2677343 792.718614,80.6612578 792.718614,75.3437145 L792.718614,46.6382555 C792.718614,39.197817 790.71302,36.3612786 789.297003,34.7072753 C788.944286,34.3517419 789.057568,33.7617626 789.533864,33.6458277 L811.72413,27.5012828 C812.90586,27.1457494 813.379582,27.0272382 813.732299,27.0272382 C814.20602,27.0272382 814.440307,27.2642605 814.440307,27.7383051 C814.440307,30.1007989 814.20602,35.6527881 814.08759,41.6788219 C817.867067,32.3447815 824.828719,27.0272382 833.682684,27.0272382 Z M781.070462,27.028784 C781.544184,27.028784 781.781045,27.2658063 781.781045,27.7372745 C781.781045,28.4483414 781.307323,31.4008145 781.307323,36.1258022 L781.307323,75.3452603 C781.307323,80.4257813 783.078631,85.7407483 785.20523,89.9942677 C785.439517,90.4683122 785.20523,90.8212693 784.734083,90.8212693 L756.161445,90.8212693 C755.690297,90.8212693 755.456011,90.4683122 755.690297,89.9942677 C758.172188,85.1481926 759.58563,80.6602273 759.58563,75.3452603 L759.58563,52.5473239 C759.58563,46.5212901 757.459031,41.6752151 754.03742,37.6612943 L752.85569,36.1258022 C752.502973,35.7702687 752.618829,35.1802894 753.092551,35.0617782 L779.064868,27.5002523 C780.246598,27.1498715 780.717745,27.028784 781.070462,27.028784 Z M683.908045,27.028784 C684.379192,27.028784 684.616053,27.2658063 684.616053,27.7372745 C684.616053,28.4483414 684.142331,31.4008145 684.142331,36.1258022 L684.142331,75.3452603 C684.142331,80.4257813 685.913639,85.7407483 688.040238,89.9942677 C688.274524,90.4683122 688.040238,90.8212693 687.569091,90.8212693 L658.996453,90.8212693 C658.52788,90.8212693 658.291019,90.4683122 658.52788,89.9942677 C661.007196,85.1481926 662.420638,80.6602273 662.420638,75.3452603 L662.420638,52.5473239 C662.420638,46.5212901 660.294039,41.6752151 656.872428,37.6612943 L655.690698,36.1258022 C655.337981,35.7702687 655.456411,35.1802894 655.927559,35.0617782 L681.899876,27.5002523 C683.081606,27.1498715 683.552753,27.028784 683.908045,27.028784 Z M652.715776,26.998641 C653.127708,26.9806067 653.44953,27.3438691 653.405762,27.7509291 L651.369273,47.7947696 C651.307483,48.3976306 650.614922,48.4723442 650.218438,48.0111813 C647.849828,45.2776961 642.342811,42.7477409 637.309516,44.0668214 C632.515657,45.3214937 630.607896,48.5522104 630.607896,52.7516268 L630.607896,75.3331516 C630.607896,80.4162489 632.144918,85.849727 634.503229,89.9847352 C634.74009,90.4587798 634.503229,90.8117369 634.034656,90.8117369 L605.464593,90.8117369 C604.990871,90.8117369 604.756584,90.4587798 604.990871,89.9847352 C607.704473,85.2571713 608.886203,80.6506949 608.886203,75.3331516 L608.886203,46.6276925 C608.886203,39.187254 606.880609,36.353292 605.464593,34.6992887 C605.109301,34.341179 605.225157,33.7511996 605.701454,33.6352648 L627.891719,27.4907198 C629.106919,27.1300338 629.570342,27.0115226 629.930783,27.0192516 C630.31182,27.0244043 630.607896,27.3619034 630.607896,27.7483528 C630.607896,30.1211519 630.25518,38.0897378 630.25518,44.0668214 C633.288029,34.9955666 645.156822,27.3412928 652.715776,26.998641 Z M291.94953,24.5851359 C314.14237,24.5851359 325.359795,38.997121 325.359795,56.0060458 C325.359795,76.0885313 311.544623,90.7401149 292.539107,90.7401149 C273.133778,90.7401149 263.572881,81.2963325 260.111571,69.8059001 C256.847616,78.4193962 247.832184,90.7401149 230.090205,90.7401149 C211.669118,90.7401149 199.275112,77.7425345 199.275112,58.3685396 C199.275112,36.750562 214.148434,24.5851359 231.501073,24.5851359 C241.776203,24.5851359 250.040591,29.0705249 256.059948,39.5871003 C257.594395,42.4236387 257.357534,44.665045 254.759787,45.4920467 L237.523005,50.575144 C236.696566,50.80959 236.225419,50.575144 236.58071,48.9185644 C238.939021,37.4616288 237.051857,28.2435232 231.150931,28.2435232 C223.947268,28.2435232 220.644088,41.4781259 220.644088,51.1651234 C220.644088,65.1056402 227.489884,75.1455948 240.82876,75.1455948 C250.811178,75.1455948 256.655348,69.4963184 259.213963,66.0980357 C258.752664,63.6333086 258.539264,61.1134531 258.539264,58.6055619 C258.539264,38.997121 272.704578,24.5851359 291.94953,24.5851359 Z M463.364763,24.5851359 C477.769512,24.5851359 488.039494,31.9070632 488.039494,42.3025512 C488.039494,53.8805743 475.171766,61.9135685 455.808384,61.9135685 C454.158081,61.9135685 452.860495,61.7950573 451.562909,61.6765462 C454.276511,69.8280515 460.53273,75.1455948 470.44742,75.1455948 C482.844001,75.1455948 488.865933,66.7596435 490.281949,64.2760623 C490.874101,63.2120383 491.816396,63.5675717 491.70054,64.6290193 C490.755671,72.0746105 481.780701,90.7401149 459.587861,90.7401149 C441.290353,90.7401149 428.656911,77.9795568 428.656911,58.3685396 C428.656911,38.0541845 442.235222,24.5851359 463.364763,24.5851359 Z M137.884361,24.5851359 C152.28911,24.5851359 162.556517,31.9070632 162.556517,42.3025512 C162.556517,53.8805743 149.688789,61.9135685 130.330556,61.9135685 C128.677679,61.9135685 127.377518,61.7950573 126.079932,61.6765462 C128.796109,69.8280515 135.052328,75.1455948 144.967018,75.1455948 C157.363598,75.1455948 163.382956,66.7596435 164.801547,64.2760623 C165.393699,63.2120383 166.335994,63.5675717 166.217563,64.6290193 C165.272694,72.0746105 156.300299,90.7401149 134.104884,90.7401149 C115.807376,90.7401149 103.176509,77.9795568 103.176509,58.3685396 C103.176509,38.0541845 116.75482,24.5851359 137.884361,24.5851359 Z M406.698357,24.5851359 C416.497191,24.5851359 422.400693,32.4970426 422.400693,45.8475801 L422.400693,72.8990358 C422.400693,77.9795568 423.698279,83.4156113 425.822304,87.5480432 C426.059165,88.0220877 425.822304,88.3750448 425.351156,88.3750448 L397.725962,88.3750448 C397.254815,88.3750448 397.015379,88.0220877 397.254815,87.5480432 C399.613126,82.8230556 400.676425,78.2165791 400.676425,72.8990358 L400.676425,46.5534943 C400.676425,41.0040813 398.431396,37.6960747 395.128215,37.6960747 C390.880166,37.6960747 388.163989,42.3025512 388.163989,50.575144 L388.163989,72.8990358 C388.163989,77.9795568 389.698436,83.2945238 391.585599,87.5480432 C391.825035,88.0220877 391.585599,88.3750448 391.117027,88.3750448 L363.489258,88.3750448 C363.01811,88.3750448 362.783824,88.0220877 363.01811,87.5480432 C365.26314,82.7071208 366.442296,78.2165791 366.442296,72.8990358 L366.442296,46.5534943 C366.442296,41.0040813 364.19984,37.6960747 360.894086,37.6960747 C356.643461,37.6960747 353.927284,42.3025512 353.927284,50.575144 L353.927284,72.8990358 C353.927284,77.9795568 355.22487,83.4156113 357.35147,87.5480432 C357.588331,88.0220877 357.35147,88.3750448 356.877748,88.3750448 L328.783981,88.3750448 C328.310259,88.3750448 328.073398,88.0220877 328.310259,87.5480432 C331.026436,82.8230556 332.208166,78.2165791 332.208166,72.8990358 L332.208166,44.1935768 C332.208166,36.750562 330.197422,33.9165999 328.783981,32.2625966 C328.431264,31.9070632 328.54712,31.3170839 329.020842,31.1985727 L351.211107,25.0566041 C352.392837,24.7010707 352.863985,24.5851359 353.221851,24.5851359 C353.690423,24.5851359 353.927284,24.8195818 353.927284,25.29105 C353.927284,27.6561202 353.690423,33.2081094 353.574568,39.2315669 C357.35147,29.9001028 364.315696,24.5851359 372.459078,24.5851359 C380.491754,24.5851359 385.921533,29.9001028 387.574411,39.2315669 L387.808697,39.2315669 C391.585599,29.9001028 398.552401,24.5851359 406.698357,24.5851359 Z M192.310885,2.49311369 C192.779458,2.49311369 193.016319,2.73013597 193.016319,3.20160419 C193.016319,3.91267103 192.547746,6.8651442 192.547746,11.5875555 L192.547746,72.8990358 C192.547746,77.9795568 194.313905,83.2945238 196.443079,87.5480432 C196.677365,88.0220877 196.443079,88.3750448 195.969357,88.3750448 L167.399293,88.3750448 C166.928146,88.3750448 166.69386,88.0220877 166.928146,87.5480432 C169.407462,82.7071208 170.823479,78.2165791 170.823479,72.8990358 L170.823479,28.0090773 C170.823479,21.9830435 168.699454,17.1395447 165.277843,13.125624 L164.096113,11.5875555 C163.738247,11.2345984 163.859252,10.644619 164.330399,10.5261079 L190.300142,2.96458192 C191.481872,2.61162483 191.955594,2.49311369 192.310885,2.49311369 Z M556.507496,8.62554989 C547.004738,9.06867849 540.807735,26.5464952 541.891631,49.8854607 C542.769561,68.7235792 547.867221,87.9352654 560.456895,87.3478624 C569.841222,86.9124628 575.850281,69.1564025 574.738064,45.2583736 C573.798344,25.0110031 567.464889,8.11543672 556.507496,8.62554989 Z M290.412508,28.2435232 C283.806148,28.601633 281.676974,38.8786098 282.624417,58.0181588 C283.685143,77.2710663 286.869892,87.4321084 293.483977,87.0765749 C300.095486,86.7210415 302.337942,76.3255535 301.393072,57.1885809 C300.329773,37.933097 297.026592,27.8905661 290.412508,28.2435232 Z M888.164819,53.0342501 C873.515485,55.8553305 872.349203,70.8804819 875.765664,74.8737921 C878.626113,78.2242127 883.510326,80.318846 887.915971,77.7085512 L888.164819,77.5557507 L888.164819,53.0342501 Z M718.654,30.6915511 C713.582086,30.9285734 711.337056,38.1371423 712.160921,51.5984619 C712.989934,65.7760011 716.414119,72.1575683 721.372751,72.0364808 C726.802531,71.8020349 728.692269,64.1219978 727.865831,51.0084826 C727.039392,37.5445866 723.970498,30.3360177 718.654,30.6915511 Z M136.115627,28.2435232 C127.96967,28.2435232 124.542911,41.2411036 124.542911,51.3995693 C124.542911,54.2335314 124.898202,56.9515586 125.490354,59.4299872 C135.760336,57.1885809 141.545407,49.9825883 141.545407,38.4045653 C141.545407,31.5515298 139.421382,28.2435232 136.115627,28.2435232 Z M461.596029,28.2435232 C453.450073,28.2435232 450.023313,41.2411036 450.023313,51.3995693 C450.023313,54.2335314 450.381179,56.9515586 450.973331,59.4299872 C461.240738,57.1885809 467.025809,49.9825883 467.025809,38.4045653 C467.025809,31.5515298 464.901784,28.2435232 461.596029,28.2435232 Z M768.739533,-2.3625546e-13 C775.356192,-2.3625546e-13 780.721607,5.36906988 780.721607,11.9902357 C780.721607,18.6139779 775.356192,23.9830478 768.739533,23.9830478 C762.117725,23.9830478 756.75231,18.6139779 756.75231,11.9902357 C756.75231,5.36906988 762.117725,-2.3625546e-13 768.739533,-2.3625546e-13 Z M671.574283,-2.3625546e-13 C678.190942,-2.3625546e-13 683.556358,5.36906988 683.556358,11.9902357 C683.556358,18.6139779 678.190942,23.9830478 671.574283,23.9830478 C664.95505,23.9830478 659.589635,18.6139779 659.589635,11.9902357 C659.589635,5.36906988 664.95505,-2.3625546e-13 671.574283,-2.3625546e-13 Z" id="welcome-originals"></path>
        </g>
    </g>
</svg>