<svg width="395" height="200" xmlns="http://www.w3.org/2000/svg"><g fill="none" fill-rule="evenodd"><path d="M298.825 53.614c.306 0 .594.111.777.301.193.187.257.43.19.668-3.655 11.848-13.634 24.983-25.604 36.983l20.509 51.403c2.813 6.478 5.322 11.706 9.21 15.95.213.237.24.552.064.81-.173.26-.525.42-.908.42l-35.722.048c-.326 0-.634-.116-.824-.316-.197-.2-.258-.457-.16-.695.841-2.111 2.367-8.128-1.674-18.39l-11.85-30.484a213.093 213.093 0 01-6.3 4.674l.034 25.868v.309c.167 6.284 1.916 13.037 4.682 18.07a.628.628 0 01-.007.614.629.629 0 01-.535.306l-34.132.044a.624.624 0 01-.53-.292.626.626 0 01-.026-.603c.118-.241.264-.519.423-.827 1.383-2.648 4.265-8.163 4.265-17.461 0 0-.08-64.055-.088-68.158v-.205c-.163-6.288-1.916-13.037-4.678-18.075a.61.61 0 01.006-.613.626.626 0 01.533-.305l34.132-.044c.217 0 .413.111.525.294.119.18.126.407.03.6-.118.245-.264.523-.423.828-1.383 2.65-4.264 8.166-4.264 17.464 0 0 .023 18.722.047 36.573 17.861-20.526 19.4-43.078 19.407-54.976 0-.434.444-.783.993-.783zm77.898 13.665c.488-.139.919-.101 1.085.007.152.102.37.366.37.892v17.149h15.464a.52.52 0 01.522.522v2.264a.52.52 0 01-.522.522h-15.465v48.146c0 4.37.651 7.607 1.936 9.63 1.254 1.977 3.25 2.936 6.105 2.936 3.105 0 5.468-1.291 7.275-3.929.166-.237.467-.41.752-.21 0 0 .322.258.115.837-3.467 9.62-11.39 14.14-22.332 14.14-5.657 0-10.366-1.696-13.996-5.038-4.004-3.678-5.489-7.946-5.489-15.756V87.45l-7.681-6.82c-.519-.462-.437-.97.247-1.285.031-.014 31.173-11.93 31.614-12.065zm-38.67 14.248c.583 0 .874.292.874.875 0 .875-.583 4.515-.583 10.342V141.1c0 6.265 2.19 12.817 4.807 18.065.291.58 0 1.02-.58 1.02h-35.25c-.58 0-.872-.44-.58-1.02 3.057-5.977 4.806-11.512 4.806-18.065v-28.108c0-7.43-2.627-13.404-6.847-18.356l-1.458-1.892c-.434-.44-.291-1.166.289-1.311l32.047-9.322c1.454-.438 2.037-.584 2.475-.584zm-15.217-33.323c8.166 0 14.783 6.62 14.783 14.783 0 8.167-6.617 14.784-14.783 14.784s-14.787-6.617-14.787-14.784c0-8.162 6.62-14.783 14.787-14.783z" fill="#FFF"/><path d="M200 100c0 55.23-44.77 100-100 100S0 155.23 0 100 44.77 0 100 0s100 44.77 100 100" fill="#FFCD00"/><path d="M66.26 152.52c-.427 1.72-.548 2.948.108 3.315.701.393 1.931.171 3.182-1.645 11.05-16.057 22.707-39.349 33.358-58.956-2.35 6.8-3.975 11.823-5.083 19.752-2.335 16.743 3.041 29.826 7.466 35.946 2.262 3.13 4.315 5.453 10.683 4.504 32.48-4.832 42.09-33.416 46.09-47.913 7.293-26.428 1.953-41.337-3.878-50.963-5.992-9.894-23.401-14.223-36.073-1.448-.707.74-1.64 2.993 1.176 6.033 5.895 6.275 36.3 39.928 24.182 67.752-4.922 11.302-18.474 8.174-25.122-3.009-7.107-11.955-10.311-35.134-5.838-57.032.108-.528.323-1.63-.89-2.085-.767-.289-1.603-.228-2.396 1.046-.325.523-11.484 16.39-24.441 40.073 5.806-27.74-7.899-57.058-10.22-58.336-.662-.364-.771-.76-2.104-.76H37.338c-2.636 0-2.405 2.255-1.573 3.073C45.774 63.763 78.41 103.558 66.26 152.52" fill="#000"/></g></svg>