<svg width="593" height="200" xmlns="http://www.w3.org/2000/svg"><g fill="none" fill-rule="evenodd"><path d="M302.63 53.17a.62.62 0 01.529.292.62.62 0 01.027.6c-.122.244-.264.519-.424.827-1.383 2.64-4.25 8.14-4.25 17.417 0 0 .076 63.886.084 67.979v.204c.166 6.271 1.909 13 4.668 18.024a.619.619 0 01-.539.919l-34.04.044a.617.617 0 01-.526-.292.595.595 0 01-.03-.6c.118-.24.264-.519.423-.827 1.38-2.644 4.251-8.142 4.251-17.417l-.04-32.136h-27.699c.022 14.878.04 29.301.044 31.879v.406c.166 6.271 1.909 13 4.671 18.024a.637.637 0 01-.01.613.624.624 0 01-.535.306l-34.041.044-.09-.007a.622.622 0 01-.436-.285.611.611 0 01-.03-.6c.122-.24.268-.519.424-.827 1.383-2.644 4.25-8.142 4.25-17.417 0 0-.074-62.575-.083-67.833l-.001-.35c-.163-6.271-1.912-13-4.668-18.027a.613.613 0 01.01-.61.613.613 0 01.529-.305l34.044-.044a.61.61 0 01.525.291.611.611 0 01.031.6c-.122.244-.264.519-.424.827-1.383 2.64-4.254 8.14-4.254 17.417l.04 32.14h27.699a71400.7 71400.7 0 00-.043-32.153l-.001-.136c-.166-6.271-1.909-13-4.668-18.027a.613.613 0 01.01-.61.613.613 0 01.53-.305zm186.895 25.131c12.478 0 19.997 10.072 19.997 27.058v34.424c0 6.464 1.654 13.383 4.359 18.637.298.607 0 1.054-.603 1.054H478.1c-.6 0-.905-.447-.6-1.054 3.007-6.007 4.356-11.871 4.356-18.637V106.26c0-7.065-2.854-11.272-7.068-11.272-5.406 0-8.864 5.862-8.864 16.387v28.407c0 6.464 1.953 13.23 4.356 18.637.305.607 0 1.054-.597 1.054h-35.176c-.603 0-.902-.447-.603-1.054 2.857-6.16 4.36-11.871 4.36-18.637V106.26c0-7.065-2.855-11.272-7.065-11.272-5.414 0-8.872 5.862-8.872 16.387v28.407c0 6.464 1.651 13.383 4.363 18.637.298.607 0 1.054-.607 1.054h-35.772c-.604 0-.902-.447-.604-1.054 3.458-6.007 4.963-11.871 4.963-18.637v-36.53c0-9.47-2.556-13.074-4.36-15.179-.45-.454-.301-1.207.302-1.352l28.258-7.82c1.505-.451 2.105-.6 2.556-.6.603 0 .901.301.901.898 0 3.01-.298 10.074-.447 17.742 4.81-11.878 13.675-18.64 24.05-18.64 10.221 0 17.136 6.762 19.245 18.64h.298c4.807-11.878 13.682-18.64 24.051-18.64zm-142.996.226c27.177 0 40.909 17.634 40.909 38.451 0 24.57-16.912 42.495-40.183 42.495-31.224 0-41.63-19.946-41.63-39.315 0-23.997 17.342-41.63 40.904-41.63zm211.81-.008c17.542 0 30.044 8.912 30.044 21.559 0 14.088-15.668 23.858-39.241 23.858-2.014 0-3.59-.143-5.173-.285 3.305 9.915 10.922 16.386 22.997 16.386 15.091 0 22.423-10.203 24.149-13.223.719-1.295 1.868-.865 1.725.43-1.152 9.058-12.074 31.766-39.095 31.766-22.284 0-37.664-15.525-37.664-39.383 0-24.722 16.532-41.108 42.258-41.108zm-200.247 39.907c-1.298-23.563-5.349-35.851-13.44-35.417-8.092.434-10.699 13.01-9.543 36.427 1.302 23.56 5.204 35.993 13.298 35.556 8.099-.434 10.845-13.156 9.685-36.566zm198.094-35.457c-9.919 0-14.088 15.817-14.088 28.177 0 3.45.434 6.752 1.153 9.773 12.501-2.73 19.545-11.499 19.545-25.587 0-8.335-2.583-12.363-6.61-12.363z" fill="#FFF"/><path d="M200 100c0 55.23-44.77 100-100 100S0 155.23 0 100 44.77 0 100 0s100 44.77 100 100" fill="#FFCD00"/><path d="M66.26 152.52c-.427 1.72-.548 2.948.108 3.315.701.393 1.931.171 3.182-1.645 11.05-16.057 22.707-39.349 33.358-58.956-2.35 6.8-3.975 11.823-5.083 19.752-2.335 16.743 3.041 29.826 7.466 35.946 2.262 3.13 4.315 5.453 10.683 4.504 32.48-4.832 42.09-33.416 46.09-47.913 7.293-26.428 1.953-41.337-3.878-50.963-5.992-9.894-23.401-14.223-36.073-1.448-.707.74-1.64 2.993 1.176 6.033 5.895 6.275 36.3 39.928 24.182 67.752-4.922 11.302-18.474 8.174-25.122-3.009-7.107-11.955-10.311-35.134-5.838-57.032.108-.528.323-1.63-.89-2.085-.767-.289-1.603-.228-2.396 1.046-.325.523-11.484 16.39-24.441 40.073 5.806-27.74-7.899-57.058-10.22-58.336-.662-.364-.771-.76-2.104-.76H37.338c-2.636 0-2.405 2.256-1.573 3.073C45.774 63.763 78.41 103.558 66.26 152.52" fill="#000"/></g></svg>